<svg width="29" height="15" viewBox="0 0 29 15" fill="none" xmlns="http://www.w3.org/2000/svg">
<path d="M0.386719 11V10.5435L1.20312 10.4199V3.48047L0.386719 3.35693V2.90039H3.03467C4.56006 2.90039 5.53402 3.31217 5.95654 4.13574C6.1141 4.4401 6.19287 4.80713 6.19287 5.23682C6.19287 5.66292 6.12126 6.04069 5.97803 6.37012C5.83838 6.69954 5.62891 6.97884 5.34961 7.20801C4.77311 7.68783 3.94238 7.92773 2.85742 7.92773H2.21289V10.4199L3.271 10.5435V11H0.386719ZM2.21289 3.55029V7.3584H3.00781C3.72038 7.3584 4.26465 7.16862 4.64062 6.78906C4.97363 6.44531 5.14014 5.98161 5.14014 5.39795C5.14014 4.79639 4.98079 4.34701 4.66211 4.0498C4.30762 3.7168 3.72217 3.55029 2.90576 3.55029H2.21289ZM11.1611 9.77002L11.4673 10.1191C10.8979 10.6312 10.3465 10.9517 9.81299 11.0806C9.69482 11.1092 9.57845 11.1235 9.46387 11.1235C8.67611 11.1235 8.03516 10.8747 7.54102 10.377C7.05046 9.88997 6.80518 9.25439 6.80518 8.47021C6.80518 7.68962 7.03613 7.02181 7.49805 6.4668C8.00651 5.86165 8.66715 5.55908 9.47998 5.55908C10.0422 5.55908 10.5166 5.76139 10.9033 6.16602C11.3151 6.58854 11.521 7.13818 11.521 7.81494L11.2686 8.04053L7.7666 8.29297C7.77376 8.94466 7.98503 9.46566 8.40039 9.85596C8.77279 10.1997 9.20605 10.3716 9.7002 10.3716C10.1943 10.3716 10.6813 10.1711 11.1611 9.77002ZM7.8042 7.78809L10.5649 7.53564C10.5399 6.94124 10.3107 6.53304 9.87744 6.31104C9.72347 6.23226 9.52653 6.19287 9.28662 6.19287C9.04671 6.19287 8.83187 6.25195 8.64209 6.37012C8.45589 6.48828 8.30192 6.63151 8.18018 6.7998C7.94743 7.11849 7.8221 7.44792 7.8042 7.78809ZM13.7339 9.35645C13.7339 10.0726 14.0239 10.4307 14.604 10.4307C14.9084 10.4307 15.2038 10.3053 15.4902 10.0547L15.7803 10.4092C15.4759 10.6598 15.1948 10.8424 14.937 10.957C14.6792 11.068 14.4518 11.1235 14.2549 11.1235C14.0579 11.1235 13.8664 11.0806 13.6802 10.9946C13.4976 10.9087 13.3454 10.7852 13.2236 10.624C12.9837 10.3125 12.8638 9.87028 12.8638 9.29736V6.31641H12.1816V5.84912L12.8638 5.68799V4.96826L13.4976 4.33447H13.7339V5.68799H15.5063V6.31641H13.7339V9.35645Z" fill="white"/>
<path d="M22.2813 2C21.2367 2 20.2156 2.30974 19.3471 2.89005C18.4786 3.47036 17.8017 4.29518 17.402 5.2602C17.0023 6.22522 16.8977 7.28711 17.1015 8.31157C17.3053 9.33603 17.8082 10.2771 18.5468 11.0157C19.2854 11.7543 20.2265 12.2572 21.2509 12.461C22.2754 12.6648 23.3373 12.5602 24.3023 12.1605C25.2673 11.7608 26.0921 11.0839 26.6725 10.2154C27.2528 9.34686 27.5625 8.32578 27.5625 7.28125C27.561 5.88103 27.0041 4.53858 26.014 3.54848C25.0239 2.55837 23.6815 2.00148 22.2813 2ZM22.2813 11.75C21.3974 11.75 20.5334 11.4879 19.7985 10.9969C19.0637 10.5058 18.4909 9.80792 18.1527 8.99137C17.8144 8.17481 17.7259 7.27629 17.8984 6.40944C18.0708 5.54259 18.4964 4.74633 19.1214 4.12137C19.7463 3.4964 20.5426 3.07079 21.4094 2.89837C22.2763 2.72594 23.1748 2.81443 23.9914 3.15266C24.8079 3.49089 25.5058 4.06366 25.9969 4.79855C26.4879 5.53343 26.75 6.39741 26.75 7.28125C26.7487 8.46602 26.2774 9.60189 25.4397 10.4396C24.6019 11.2774 23.466 11.7487 22.2813 11.75ZM24.7188 7.28125C24.7188 7.38899 24.676 7.49233 24.5998 7.56851C24.5236 7.6447 24.4202 7.6875 24.3125 7.6875H22.6875V9.3125C22.6875 9.42024 22.6447 9.52358 22.5685 9.59976C22.4923 9.67595 22.389 9.71875 22.2813 9.71875C22.1735 9.71875 22.0702 9.67595 21.994 9.59976C21.9178 9.52358 21.875 9.42024 21.875 9.3125V7.6875H20.25C20.1423 7.6875 20.0389 7.6447 19.9627 7.56851C19.8866 7.49233 19.8438 7.38899 19.8438 7.28125C19.8438 7.17351 19.8866 7.07017 19.9627 6.99399C20.0389 6.9178 20.1423 6.875 20.25 6.875H21.875V5.25C21.875 5.14226 21.9178 5.03892 21.994 4.96274C22.0702 4.88655 22.1735 4.84375 22.2813 4.84375C22.389 4.84375 22.4923 4.88655 22.5685 4.96274C22.6447 5.03892 22.6875 5.14226 22.6875 5.25V6.875H24.3125C24.4202 6.875 24.5236 6.9178 24.5998 6.99399C24.676 7.07017 24.7188 7.17351 24.7188 7.28125Z" fill="white"/>
</svg>
