<svg width="14" height="14" viewBox="0 0 14 14" fill="none" xmlns="http://www.w3.org/2000/svg">
<path d="M12.9698 3.27898L10.0028 0.311285C9.90411 0.212597 9.78697 0.134312 9.65805 0.0809012C9.52913 0.0274904 9.39094 0 9.25139 0C9.11184 0 8.97366 0.0274904 8.84474 0.0809012C8.71581 0.134312 8.59867 0.212597 8.5 0.311285L0.311451 8.5005C0.212359 8.59881 0.133796 8.71583 0.0803298 8.84476C0.0268632 8.9737 -0.000440565 9.11198 5.37555e-06 9.25156V12.2193C5.37555e-06 12.501 0.111947 12.7713 0.311204 12.9706C0.510462 13.1698 0.780713 13.2818 1.06251 13.2818H4.0302C4.16978 13.2822 4.30806 13.2549 4.43699 13.2014C4.56593 13.148 4.68295 13.0694 4.78126 12.9703L12.9698 4.78175C13.0685 4.68309 13.1468 4.56595 13.2002 4.43702C13.2536 4.3081 13.2811 4.16992 13.2811 4.03037C13.2811 3.89082 13.2536 3.75263 13.2002 3.62371C13.1468 3.49479 13.0685 3.37765 12.9698 3.27898ZM1.28231 9.03175L6.90626 3.40781L8.01458 4.51613L2.39063 10.1394L1.28231 9.03175ZM1.06251 10.3141L2.9677 12.2193H1.06251V10.3141ZM4.25001 11.9994L3.14168 10.8911L8.76563 5.26718L9.87395 6.3755L4.25001 11.9994ZM10.625 5.62445L7.65731 2.65675L9.25106 1.063L12.2188 4.03004L10.625 5.62445Z" fill="white"/>
</svg>
