<svg width="36" height="36" viewBox="0 0 36 36" fill="none" xmlns="http://www.w3.org/2000/svg">
<path d="M18 3.375C15.1075 3.375 12.2799 4.23274 9.87479 5.83976C7.46972 7.44677 5.5952 9.73089 4.48827 12.4033C3.38134 15.0756 3.09171 18.0162 3.65602 20.8532C4.22033 23.6902 5.61323 26.2961 7.65857 28.3414C9.70391 30.3868 12.3098 31.7797 15.1468 32.344C17.9838 32.9083 20.9244 32.6187 23.5968 31.5117C26.2691 30.4048 28.5532 28.5303 30.1602 26.1252C31.7673 23.7201 32.625 20.8926 32.625 18C32.6209 14.1225 31.0788 10.4049 28.3369 7.66309C25.5951 4.92125 21.8775 3.37909 18 3.375ZM18 30.375C15.5525 30.375 13.1599 29.6492 11.1248 28.2894C9.08977 26.9297 7.50363 24.9969 6.567 22.7357C5.63036 20.4745 5.3853 17.9863 5.86279 15.5858C6.34028 13.1852 7.51889 10.9802 9.24956 9.24955C10.9802 7.51888 13.1852 6.34027 15.5858 5.86278C17.9863 5.38529 20.4745 5.63036 22.7357 6.56699C24.997 7.50363 26.9297 9.08976 28.2894 11.1248C29.6492 13.1599 30.375 15.5525 30.375 18C30.3713 21.2809 29.0663 24.4264 26.7463 26.7463C24.4264 29.0663 21.2809 30.3713 18 30.375ZM24.75 18C24.75 18.2984 24.6315 18.5845 24.4205 18.7955C24.2095 19.0065 23.9234 19.125 23.625 19.125H15.0905L17.6709 21.7041C17.7755 21.8086 17.8584 21.9327 17.9149 22.0692C17.9715 22.2058 18.0006 22.3522 18.0006 22.5C18.0006 22.6478 17.9715 22.7942 17.9149 22.9308C17.8584 23.0673 17.7755 23.1914 17.6709 23.2959C17.5664 23.4005 17.4423 23.4834 17.3058 23.5399C17.1692 23.5965 17.0228 23.6256 16.875 23.6256C16.7272 23.6256 16.5808 23.5965 16.4442 23.5399C16.3077 23.4834 16.1836 23.4005 16.0791 23.2959L11.5791 18.7959C11.4745 18.6915 11.3915 18.5674 11.3349 18.4308C11.2783 18.2942 11.2491 18.1478 11.2491 18C11.2491 17.8522 11.2783 17.7058 11.3349 17.5692C11.3915 17.4326 11.4745 17.3085 11.5791 17.2041L16.0791 12.7041C16.2902 12.493 16.5765 12.3744 16.875 12.3744C17.1735 12.3744 17.4598 12.493 17.6709 12.7041C17.882 12.9152 18.0006 13.2015 18.0006 13.5C18.0006 13.7985 17.882 14.0848 17.6709 14.2959L15.0905 16.875H23.625C23.9234 16.875 24.2095 16.9935 24.4205 17.2045C24.6315 17.4155 24.75 17.7016 24.75 18Z" fill="white"/>
</svg>
