<svg width="13" height="14" viewBox="0 0 13 14" fill="none" xmlns="http://www.w3.org/2000/svg">
<path d="M12.2188 2.125H9.5625V1.59375C9.5625 1.17106 9.39459 0.765685 9.0957 0.466799C8.79682 0.167913 8.39144 0 7.96875 0H4.78125C4.35856 0 3.95318 0.167913 3.6543 0.466799C3.35541 0.765685 3.1875 1.17106 3.1875 1.59375V2.125H0.53125C0.390354 2.125 0.255228 2.18097 0.1556 2.2806C0.0559709 2.38023 0 2.51535 0 2.65625C0 2.79715 0.0559709 2.93227 0.1556 3.0319C0.255228 3.13153 0.390354 3.1875 0.53125 3.1875H1.0625V12.75C1.0625 13.0318 1.17444 13.302 1.3737 13.5013C1.57296 13.7006 1.84321 13.8125 2.125 13.8125H10.625C10.9068 13.8125 11.177 13.7006 11.3763 13.5013C11.5756 13.302 11.6875 13.0318 11.6875 12.75V3.1875H12.2188C12.3596 3.1875 12.4948 3.13153 12.5944 3.0319C12.694 2.93227 12.75 2.79715 12.75 2.65625C12.75 2.51535 12.694 2.38023 12.5944 2.2806C12.4948 2.18097 12.3596 2.125 12.2188 2.125ZM4.25 1.59375C4.25 1.45285 4.30597 1.31773 4.4056 1.2181C4.50523 1.11847 4.64035 1.0625 4.78125 1.0625H7.96875C8.10965 1.0625 8.24477 1.11847 8.3444 1.2181C8.44403 1.31773 8.5 1.45285 8.5 1.59375V2.125H4.25V1.59375ZM10.625 12.75H2.125V3.1875H10.625V12.75ZM5.3125 5.84375V10.0938C5.3125 10.2346 5.25653 10.3698 5.1569 10.4694C5.05727 10.569 4.92215 10.625 4.78125 10.625C4.64035 10.625 4.50523 10.569 4.4056 10.4694C4.30597 10.3698 4.25 10.2346 4.25 10.0938V5.84375C4.25 5.70285 4.30597 5.56773 4.4056 5.4681C4.50523 5.36847 4.64035 5.3125 4.78125 5.3125C4.92215 5.3125 5.05727 5.36847 5.1569 5.4681C5.25653 5.56773 5.3125 5.70285 5.3125 5.84375ZM8.5 5.84375V10.0938C8.5 10.2346 8.44403 10.3698 8.3444 10.4694C8.24477 10.569 8.10965 10.625 7.96875 10.625C7.82785 10.625 7.69273 10.569 7.5931 10.4694C7.49347 10.3698 7.4375 10.2346 7.4375 10.0938V5.84375C7.4375 5.70285 7.49347 5.56773 7.5931 5.4681C7.69273 5.36847 7.82785 5.3125 7.96875 5.3125C8.10965 5.3125 8.24477 5.36847 8.3444 5.4681C8.44403 5.56773 8.5 5.70285 8.5 5.84375Z" fill="white"/>
</svg>
