<svg width="74" height="32" viewBox="0 0 74 32" fill="none" xmlns="http://www.w3.org/2000/svg">
<path d="M62.6445 3C60.5555 3 58.5133 3.61948 56.7763 4.7801C55.0393 5.94072 53.6855 7.59036 52.8861 9.52041C52.0866 11.4504 51.8774 13.5742 52.285 15.6231C52.6925 17.6721 53.6985 19.5541 55.1757 21.0313C56.6529 22.5085 58.535 23.5145 60.5839 23.922C62.6328 24.3296 64.7566 24.1204 66.6866 23.321C68.6167 22.5215 70.2663 21.1677 71.4269 19.4307C72.5876 17.6937 73.207 15.6516 73.207 13.5625C73.2041 10.7621 72.0903 8.07716 70.1101 6.09695C68.1299 4.11674 65.445 3.00296 62.6445 3ZM62.6445 22.5C60.8769 22.5 59.1489 21.9758 57.6791 20.9938C56.2094 20.0117 55.0638 18.6158 54.3874 16.9827C53.7109 15.3496 53.5339 13.5526 53.8788 11.8189C54.2236 10.0852 55.0748 8.49266 56.3248 7.24273C57.5747 5.9928 59.1672 5.14159 60.9009 4.79673C62.6346 4.45188 64.4317 4.62887 66.0648 5.30533C67.6979 5.98178 69.0937 7.12733 70.0758 8.59709C71.0579 10.0669 71.582 11.7948 71.582 13.5625C71.5793 15.932 70.6369 18.2038 68.9613 19.8793C67.2858 21.5548 65.0141 22.4973 62.6445 22.5ZM67.5195 13.5625C67.5195 13.778 67.4339 13.9847 67.2816 14.137C67.1292 14.2894 66.9225 14.375 66.707 14.375H63.457V17.625C63.457 17.8405 63.3714 18.0472 63.2191 18.1995C63.0667 18.3519 62.86 18.4375 62.6445 18.4375C62.429 18.4375 62.2224 18.3519 62.07 18.1995C61.9176 18.0472 61.832 17.8405 61.832 17.625V14.375H58.582C58.3665 14.375 58.1599 14.2894 58.0075 14.137C57.8551 13.9847 57.7695 13.778 57.7695 13.5625C57.7695 13.347 57.8551 13.1403 58.0075 12.988C58.1599 12.8356 58.3665 12.75 58.582 12.75H61.832V9.5C61.832 9.28451 61.9176 9.07785 62.07 8.92548C62.2224 8.7731 62.429 8.6875 62.6445 8.6875C62.86 8.6875 63.0667 8.7731 63.2191 8.92548C63.3714 9.07785 63.457 9.28451 63.457 9.5V12.75H66.707C66.9225 12.75 67.1292 12.8356 67.2816 12.988C67.4339 13.1403 67.5195 13.347 67.5195 13.5625Z" fill="white"/>
<path d="M12.4805 22.0039L14.0977 21.7344L12.2461 17.1758H5.21484L3.375 21.7344L5.02734 22.0039V23H0V22.0039L1.85156 21.7344L8.00391 6.52344L7.51172 5.36328L9.41016 4.56641L16.418 21.7344L18.3047 22.0039V23H12.4805V22.0039ZM5.76562 15.7578H11.7305L8.74219 8.23438L5.76562 15.7578ZM25.1367 11.1289C26.1133 11.1289 27.0859 11.3203 28.0547 11.7031V5.69141L26.2617 5.32812V4.37891L29.9531 3.51172V21.125C29.9531 21.4766 30.1484 21.6523 30.5391 21.6523C30.9375 21.6523 31.4336 21.5312 32.0273 21.2891L32.2734 22.3906C31.1562 22.9766 30.3203 23.2695 29.7656 23.2695C28.9609 23.2695 28.4336 23.0078 28.1836 22.4844C28.0977 22.2969 28.0547 22.0742 28.0547 21.8164C27.4688 22.332 26.8438 22.7031 26.1797 22.9297C25.5156 23.1562 24.8242 23.2695 24.1055 23.2695C23.3945 23.2695 22.707 23.1328 22.043 22.8594C21.3789 22.5859 20.8242 22.1953 20.3789 21.6875C19.5117 20.6953 19.0781 19.293 19.0781 17.4805C19.0781 15.7461 19.5898 14.2891 20.6133 13.1094C21.7461 11.7891 23.2539 11.1289 25.1367 11.1289ZM25.1367 21.6289C25.9258 21.6289 26.8984 21.2578 28.0547 20.5156V13.8594C27.3828 12.9609 26.3125 12.5117 24.8438 12.5117C23.7109 12.5117 22.793 12.9688 22.0898 13.8828C21.4336 14.75 21.1055 15.8672 21.1055 17.2344C21.1055 18.4766 21.418 19.4961 22.043 20.293C22.7305 21.1836 23.7617 21.6289 25.1367 21.6289ZM39.1523 11.1289C40.1289 11.1289 41.1016 11.3203 42.0703 11.7031V5.69141L40.2773 5.32812V4.37891L43.9688 3.51172V21.125C43.9688 21.4766 44.1641 21.6523 44.5547 21.6523C44.9531 21.6523 45.4492 21.5312 46.043 21.2891L46.2891 22.3906C45.1719 22.9766 44.3359 23.2695 43.7812 23.2695C42.9766 23.2695 42.4492 23.0078 42.1992 22.4844C42.1133 22.2969 42.0703 22.0742 42.0703 21.8164C41.4844 22.332 40.8594 22.7031 40.1953 22.9297C39.5312 23.1562 38.8398 23.2695 38.1211 23.2695C37.4102 23.2695 36.7227 23.1328 36.0586 22.8594C35.3945 22.5859 34.8398 22.1953 34.3945 21.6875C33.5273 20.6953 33.0938 19.293 33.0938 17.4805C33.0938 15.7461 33.6055 14.2891 34.6289 13.1094C35.7617 11.7891 37.2695 11.1289 39.1523 11.1289ZM39.1523 21.6289C39.9414 21.6289 40.9141 21.2578 42.0703 20.5156V13.8594C41.3984 12.9609 40.3281 12.5117 38.8594 12.5117C37.7266 12.5117 36.8086 12.9688 36.1055 13.8828C35.4492 14.75 35.1211 15.8672 35.1211 17.2344C35.1211 18.4766 35.4336 19.4961 36.0586 20.293C36.7461 21.1836 37.7773 21.6289 39.1523 21.6289Z" fill="white"/>
</svg>
